<svg width="66" height="66" viewBox="0 0 66 66" fill="none" xmlns="http://www.w3.org/2000/svg">
<circle cx="32.5652" cy="32.5652" r="32.5652" fill="#D9D9D9"/>
<mask id="mask0_378_893" style="mask-type:alpha" maskUnits="userSpaceOnUse" x="0" y="0" width="66" height="66">
<circle cx="32.5652" cy="32.5652" r="32.5652" fill="#D9D9D9"/>
</mask>
<g mask="url(#mask0_378_893)">
<path fill-rule="evenodd" clip-rule="evenodd" d="M36.0475 35.92C38.4294 33.1242 40.0415 29.6979 39.7721 25.8586C38.9959 14.7965 23.5971 17.23 20.6018 22.8132C17.6064 28.3964 17.9623 42.5586 21.8336 43.5565C23.3774 43.9544 26.6663 42.9796 30.0136 40.962L27.9126 55.8261H40.3184L36.0475 35.92Z" fill="#CBA786"/>
<path fill-rule="evenodd" clip-rule="evenodd" d="M45.1811 22.1763C45.5818 21.7792 45.8004 21.2124 45.9894 20.6743C46.1858 20.1152 46.3766 19.5504 46.5069 18.9685C46.7674 17.8059 46.7699 16.4688 45.9405 15.566C45.2753 14.8421 44.2772 14.5174 43.3561 14.4468C42.7424 14.3997 42.1121 14.4857 41.5238 14.6791C40.9401 14.8709 40.437 15.2533 39.8711 15.4906C39.8495 14.2377 39.6349 12.9267 38.9993 11.8569C38.3876 10.8276 37.4124 10.25 36.3018 10.0972C35.1619 9.94033 34.0363 10.2071 33.0158 10.7589C32.7603 10.8971 32.5072 11.0419 32.265 11.2058C32.0622 11.343 31.8513 11.5083 31.6133 11.5641C31.348 11.6264 31.2165 11.4732 31.0441 11.2796C30.842 11.0527 30.6142 10.8528 30.3732 10.6756C29.3075 9.89224 27.9092 9.57015 26.6745 10.0397C26.1056 10.256 25.5524 10.6234 25.1665 11.1297C24.8224 11.581 24.577 12.2969 24.1022 12.6113C23.9007 12.7448 23.7584 12.568 23.575 12.4373C23.2994 12.2409 23.0366 12.0242 22.7577 11.8332C22.3659 11.5648 21.9418 11.364 21.4876 11.2589C20.8226 11.1051 19.9037 11.1411 19.7136 12.012C19.6422 12.3392 19.6969 12.689 19.72 13.0186C19.7517 13.4712 19.7847 13.9236 19.824 14.3755C19.8538 14.7187 19.8915 15.0501 19.9563 15.387C19.9908 15.5666 20.0989 15.9015 20.0219 16.0813C19.9256 16.3062 19.4814 16.1784 19.2916 16.1862C18.9168 16.2017 18.5403 16.2674 18.1937 16.4276C17.9251 16.5517 17.6427 16.7343 17.5293 17.0422C17.4596 17.2313 17.478 17.4256 17.5109 17.6202C17.5504 17.8537 17.5052 17.9776 17.4758 18.2132C16.9723 17.9653 15.2276 17.4144 15.0081 18.3167C14.935 18.6172 15.1015 18.9566 15.2284 19.21C15.4511 19.6544 15.7431 20.0606 16.0416 20.4479C16.6643 21.256 17.4076 21.953 18.2074 22.5491C17.2704 22.9657 17.0258 24.1944 17.8371 24.9265C18.1953 25.2497 18.6769 25.3217 19.1287 25.301C19.2941 25.2935 19.5325 25.2299 19.6626 25.2587C19.7327 25.2742 19.8077 25.3335 19.9047 25.3402C20.5423 25.3838 21.2622 25.2302 21.8855 25.0887C22.9963 24.8366 24.0478 24.3103 24.9066 23.5089C25.1268 23.3033 25.3088 23.1849 25.6053 23.188C25.8651 23.1906 26.1201 23.2618 26.3796 23.2684C27.0665 23.2859 27.6857 22.9502 28.3235 22.7267C28.3626 23.5883 28.6079 24.5372 28.9604 25.3123C29.2478 25.9444 29.848 26.0363 30.4377 26.0917C32.3237 26.2692 34.2163 26.0712 36.1047 26.0738C34.2767 26.487 32.3878 26.6573 30.5761 27.1435C29.7571 27.3632 30.3825 27.9152 30.7326 28.2978C31.3092 28.9279 31.7379 29.7086 32.0353 30.531C32.9295 29.3654 34.5101 28.5973 35.9104 28.9554C37.4576 29.351 38.5471 31.4434 37.5577 32.9476C36.9833 33.8208 35.946 34.1579 35.0829 34.5331C35.7562 35.2331 35.9191 36.267 36.3243 37.1379C36.5242 37.5674 36.8048 38.053 37.2518 38.2027C37.4171 38.2581 37.6111 38.2628 37.7415 38.3976C37.9031 38.5645 37.9416 38.7511 38.148 38.8946C38.9716 39.4672 40.258 39.423 40.988 38.6758C41.6481 38.0001 41.4764 36.9307 40.9251 36.2456C41.8027 35.8798 43.4016 35.4093 43.0528 34.0421C44.9544 33.9158 49.5716 30.8316 47.0193 28.578C48.42 27.7863 49.7069 25.8516 48.8071 24.1462C48.1143 22.8329 46.5031 22.2459 45.1811 22.1763Z" fill="#191847"/>
<path fill-rule="evenodd" clip-rule="evenodd" d="M17.2451 66.5262L-0.696648 56.6996C-3.68025 53.1565 -6.61994 50.4049 -9.5157 48.4446C-10.4006 48.0752 -11.9479 47.8516 -10.5008 50.42C-9.05374 52.9885 -7.64713 55.7552 -8.38436 56.5465C-9.1216 57.3378 -10.96 56.2324 -11.8395 57.5471C-12.4258 58.4236 -9.28512 59.8082 -2.41736 61.7009L10.6195 73.6375L17.2451 66.5262ZM-10.855 74.8172L-18.7361 70.4878C-19.8419 66.28 -21.1638 64.1629 -22.7017 64.1366C-23.8831 63.5868 -21.8257 68.9038 -24.0653 68.4427C-26.305 67.9816 -31.7713 63.9161 -32.7132 64.7415C-34.1067 65.9627 -32.8642 69.7126 -31.4002 71.5779C-28.6641 75.0642 -26.3987 76.2564 -20.7995 77.8176C-17.8719 78.6339 -14.7067 80.2701 -11.3038 82.7261L-10.855 74.8172Z" fill="#997659"/>
<path fill-rule="evenodd" clip-rule="evenodd" d="M25.9825 64.337C19.6982 64.2706 11.3179 62.9433 2.37619 57.2674L-1.13543 65.0986C5.03237 71.2196 13.7049 76.2488 21.288 76.0358C27.2639 75.868 30.318 68.6396 25.9825 64.337Z" fill="#2026A2"/>
<path fill-rule="evenodd" clip-rule="evenodd" d="M17.5209 76.8959C10.8493 78.5598 -0.338651 76.5976 -16.0428 71.0094C-19.9381 79.0681 -21.7388 84.8133 -21.4449 88.245C-7.97303 95.2822 3.57353 98.4197 13.0863 98.6269C12.784 104.271 13.4711 109.642 15.7791 114.55C20.5239 124.639 48.3075 115.295 57.6492 117.134C63.4993 98.1357 52.188 90.4147 52.1789 78.2581C52.169 64.9455 41.4795 44.4541 39.9068 44.4541H25.5642C24.7729 54.6212 20.7897 65.8262 17.5209 76.8959Z" fill="#1F28CF"/>
</g>
</svg>
