<svg width="66" height="66" viewBox="0 0 66 66" fill="none" xmlns="http://www.w3.org/2000/svg">
<circle cx="32.5652" cy="32.5652" r="32.5652" fill="#D9D9D9"/>
<mask id="mask0_378_894" style="mask-type:alpha" maskUnits="userSpaceOnUse" x="0" y="0" width="66" height="66">
<circle cx="32.5652" cy="32.5652" r="32.5652" fill="#D9D9D9"/>
</mask>
<g mask="url(#mask0_378_894)">
<path fill-rule="evenodd" clip-rule="evenodd" d="M38.9629 32.5379C41.271 29.8286 42.8333 26.5083 42.5722 22.7877C41.8201 12.0679 26.8976 14.4261 23.9949 19.8366C21.0922 25.247 21.4371 38.9711 25.1886 39.9381C26.6847 40.3238 29.8719 39.3791 33.1156 37.4239L31.0796 51.8281H43.1016L38.9629 32.5379Z" fill="#D3AF8D"/>
<path fill-rule="evenodd" clip-rule="evenodd" d="M29.297 20.621C30.9284 21.5336 32.0894 23.2436 33.487 25.4866C33.8274 25.3528 34.1981 25.2793 34.586 25.2793C36.2459 25.2793 37.5915 26.6249 37.5915 28.2848C37.5915 29.1275 37.2447 29.8891 36.6861 30.4348C37.3815 31.4164 38.1609 32.4419 39.054 33.4999C42.3867 31.5004 44.8656 25.6727 41.6834 20.0469C38.9455 8.77782 23.4314 15.7724 20.4466 13.8718C19.7942 17.9612 21.8985 21.2585 29.297 20.621Z" fill="#191847"/>
<path fill-rule="evenodd" clip-rule="evenodd" d="M35.7027 44.2727L31.209 43.5069C24.13 68.3691 -12.2415 85.3162 -14.4743 94.6103C-15.2932 98.0188 -12.8242 99.7417 -14.0996 100.78L-8.25862 105.028C-7.26951 103.882 -5.15874 105.979 -0.750791 104.512C3.65716 103.045 35.7027 73.7117 35.7027 44.2727Z" fill="#DB2721"/>
<path fill-rule="evenodd" clip-rule="evenodd" d="M28.1435 47.5782C28.6616 80.4939 9.51042 88.8901 13.7762 102.095C17.2989 112.999 51.0163 124.72 56.8509 114.032C59.2127 109.705 60.2842 104.473 60.4058 98.7836C61.897 103.154 63.0764 106.917 63.9439 110.071C65.4406 115.514 71.2427 116.379 71.2427 118.475L78.887 116.379C78.3685 113.53 81.9722 112.144 81.0059 105.78C76.6766 77.2701 65.0444 56.6039 46.1095 43.7817L45.9092 40.9368C45.8298 39.8338 44.8731 39.0021 43.7697 39.0769L29.623 40.0598C28.5189 40.1347 27.6862 41.0918 27.7629 42.1957C27.7629 42.1963 27.763 42.1969 27.7648 42.1974L28.1435 47.5782Z" fill="#FF4133"/>
</g>
</svg>
