<svg width="66" height="66" viewBox="0 0 66 66" fill="none" xmlns="http://www.w3.org/2000/svg">
<circle cx="32.5652" cy="32.5652" r="32.5652" fill="#D9D9D9"/>
<mask id="mask0_378_895" style="mask-type:alpha" maskUnits="userSpaceOnUse" x="0" y="0" width="66" height="66">
<circle cx="32.5652" cy="32.5652" r="32.5652" fill="#D9D9D9"/>
</mask>
<g mask="url(#mask0_378_895)">
<path fill-rule="evenodd" clip-rule="evenodd" d="M36.5646 31.2679C38.9465 28.4721 40.5586 25.0458 40.2892 21.2065C39.513 10.1444 24.1142 12.5779 21.1188 18.1611C18.1235 23.7443 18.4794 37.9065 22.3507 38.9044C23.8945 39.3023 27.1834 38.3275 30.5307 36.3099L28.4297 51.174H40.8354L36.5646 31.2679Z" fill="#EAB597"/>
<path fill-rule="evenodd" clip-rule="evenodd" d="M37.5176 33.758C39.0747 26.8309 43.5104 22.1089 42.833 19.0128C42.3814 16.9487 41.1776 15.6651 39.2218 15.1621C38.2102 11.0699 34.9478 9.32932 29.4345 9.94037C21.1645 10.8569 16.1169 14.2914 18.2967 21.8486C20.3005 21.8486 22.7194 21.124 26.0643 22.3656C27.1256 22.7595 27.8847 23.9811 28.3415 26.0305H29.8531C31.3201 23.5985 32.7666 22.7048 34.1925 23.3494C35.6185 23.994 35.9426 25.5598 35.165 28.0467L35.9095 33.758H37.5176Z" fill="#191847"/>
<path fill-rule="evenodd" clip-rule="evenodd" d="M33.7563 42.5586L29.2865 41.7919C12.7024 56.1182 5.89067 83.6408 -14.4374 98.2207L-9.5446 104.285C25.7209 99.9191 34.4617 66.3481 33.7563 42.5586Z" fill="#E87613"/>
<path fill-rule="evenodd" clip-rule="evenodd" d="M53.2412 98.7298C35.3191 98.7298 22.136 98.7298 13.6918 98.7298C11.8846 98.7298 12.2252 96.1202 12.4864 94.8034C15.5014 79.6061 27.2711 63.2241 27.2711 41.5911L38.679 39.8022C48.1148 54.9778 51.3778 73.6621 53.2412 98.7298Z" fill="#DDE3E9"/>
<path fill-rule="evenodd" clip-rule="evenodd" d="M52.9233 54.7193C54.5802 54.243 55.8923 53.1322 56.8595 51.3869C61.0291 43.8632 59.5233 39.7209 55.0673 38.3593C50.6113 36.9977 46.6375 39.8024 39.5379 39.8024C39.1517 39.8024 38.7981 39.8266 38.4769 39.875L34.9056 40.0788C24.6592 74.8049 21.8334 97.9736 26.428 109.585H57.5564C59.4007 113.886 61.1656 117.504 62.851 120.44H71.3329C72.1312 94.6293 65.9947 72.7224 52.9233 54.7193Z" fill="#FF9B21"/>
</g>
</svg>
