<svg width="66" height="66" viewBox="0 0 66 66" fill="none" xmlns="http://www.w3.org/2000/svg">
<mask id="mask0_378_783" style="mask-type:alpha" maskUnits="userSpaceOnUse" x="0" y="0" width="66" height="66">
<circle cx="32.5652" cy="32.5652" r="32.5652" fill="#D9D9D9"/>
</mask>
<g mask="url(#mask0_378_783)">
<path fill-rule="evenodd" clip-rule="evenodd" d="M36.0483 35.92C38.4301 33.1242 40.0422 29.6979 39.7728 25.8586C38.9967 14.7965 23.5979 17.23 20.6025 22.8132C17.6071 28.3964 17.963 42.5586 21.8343 43.5565C23.3782 43.9544 26.667 42.9796 30.0143 40.962L27.9133 55.8261H40.3191L36.0483 35.92Z" fill="#CBA786"/>
<path fill-rule="evenodd" clip-rule="evenodd" d="M45.1813 22.1763C45.582 21.7792 45.8006 21.2124 45.9897 20.6743C46.186 20.1152 46.3768 19.5504 46.5072 18.9685C46.7677 17.8059 46.7701 16.4688 45.9407 15.566C45.2755 14.8421 44.2775 14.5174 43.3563 14.4468C42.7426 14.3997 42.1123 14.4857 41.524 14.6791C40.9403 14.8709 40.4372 15.2533 39.8714 15.4906C39.8498 14.2377 39.6352 12.9267 38.9995 11.8569C38.3879 10.8276 37.4127 10.25 36.3021 10.0972C35.1622 9.94033 34.0365 10.2071 33.0161 10.7589C32.7606 10.8971 32.5075 11.0419 32.2652 11.2058C32.0624 11.343 31.8516 11.5083 31.6136 11.5641C31.3483 11.6264 31.2168 11.4732 31.0444 11.2796C30.8422 11.0527 30.6145 10.8528 30.3734 10.6756C29.3077 9.89224 27.9094 9.57015 26.6747 10.0397C26.1058 10.256 25.5527 10.6234 25.1667 11.1297C24.8227 11.581 24.5773 12.2969 24.1025 12.6113C23.901 12.7448 23.7587 12.568 23.5752 12.4373C23.2996 12.2409 23.0368 12.0242 22.7579 11.8332C22.3662 11.5648 21.942 11.364 21.4878 11.2589C20.8229 11.1051 19.904 11.1411 19.7138 12.012C19.6425 12.3392 19.6972 12.689 19.7203 13.0186C19.7519 13.4712 19.7849 13.9236 19.8242 14.3755C19.8541 14.7187 19.8918 15.0501 19.9565 15.387C19.9911 15.5666 20.0992 15.9015 20.0221 16.0813C19.9259 16.3062 19.4817 16.1784 19.2919 16.1862C18.917 16.2017 18.5406 16.2674 18.194 16.4276C17.9254 16.5517 17.6429 16.7343 17.5296 17.0422C17.4599 17.2313 17.4782 17.4256 17.5112 17.6202C17.5506 17.8537 17.5055 17.9776 17.476 18.2132C16.9725 17.9653 15.2279 17.4144 15.0084 18.3167C14.9353 18.6172 15.1017 18.9566 15.2287 19.21C15.4514 19.6544 15.7434 20.0606 16.0419 20.4479C16.6645 21.256 17.4079 21.953 18.2076 22.5491C17.2706 22.9657 17.026 24.1944 17.8373 24.9265C18.1955 25.2497 18.6771 25.3217 19.129 25.301C19.2944 25.2935 19.5328 25.2299 19.6629 25.2587C19.7329 25.2742 19.8079 25.3335 19.9049 25.3402C20.5426 25.3838 21.2624 25.2302 21.8858 25.0887C22.9965 24.8366 24.0481 24.3103 24.9068 23.5089C25.1271 23.3033 25.3091 23.1849 25.6056 23.188C25.8654 23.1906 26.1203 23.2618 26.3799 23.2684C27.0667 23.2859 27.686 22.9502 28.3238 22.7267C28.3628 23.5883 28.6082 24.5372 28.9606 25.3123C29.248 25.9444 29.8482 26.0363 30.438 26.0917C32.324 26.2692 34.2166 26.0712 36.1049 26.0738C34.277 26.487 32.388 26.6573 30.5763 27.1435C29.7574 27.3632 30.3827 27.9152 30.7329 28.2978C31.3095 28.9279 31.7382 29.7086 32.0355 30.531C32.9298 29.3654 34.5103 28.5973 35.9106 28.9554C37.4578 29.351 38.5473 31.4434 37.5579 32.9476C36.9835 33.8208 35.9463 34.1579 35.0832 34.5331C35.7565 35.2331 35.9193 36.267 36.3246 37.1379C36.5245 37.5674 36.805 38.053 37.252 38.2027C37.4174 38.2581 37.6113 38.2628 37.7418 38.3976C37.9034 38.5645 37.9419 38.7511 38.1483 38.8946C38.9718 39.4672 40.2583 39.423 40.9883 38.6758C41.6484 38.0001 41.4766 36.9307 40.9253 36.2456C41.8029 35.8798 43.4018 35.4093 43.053 34.0421C44.9547 33.9158 49.5719 30.8316 47.0195 28.578C48.4203 27.7863 49.7071 25.8516 48.8074 24.1462C48.1146 22.8329 46.5033 22.2459 45.1813 22.1763Z" fill="#191847"/>
<path fill-rule="evenodd" clip-rule="evenodd" d="M17.2451 66.5262L-0.696648 56.6996C-3.68025 53.1565 -6.61994 50.4049 -9.5157 48.4446C-10.4006 48.0752 -11.9479 47.8516 -10.5008 50.42C-9.05374 52.9885 -7.64713 55.7552 -8.38436 56.5465C-9.1216 57.3378 -10.96 56.2324 -11.8395 57.5471C-12.4258 58.4236 -9.28512 59.8082 -2.41736 61.7009L10.6195 73.6375L17.2451 66.5262ZM-10.855 74.8172L-18.7361 70.4878C-19.8419 66.28 -21.1638 64.1629 -22.7017 64.1366C-23.8831 63.5868 -21.8257 68.9038 -24.0653 68.4427C-26.305 67.9816 -31.7713 63.9161 -32.7132 64.7415C-34.1067 65.9627 -32.8642 69.7126 -31.4002 71.5779C-28.6641 75.0642 -26.3987 76.2564 -20.7995 77.8176C-17.8719 78.6339 -14.7067 80.2701 -11.3038 82.7261L-10.855 74.8172Z" fill="#997659"/>
<path fill-rule="evenodd" clip-rule="evenodd" d="M25.983 64.337C19.6986 64.2706 11.3184 62.9433 2.37668 57.2674L-1.13494 65.0986C5.03286 71.2196 13.7054 76.2488 21.2885 76.0358C27.2643 75.868 30.3185 68.6396 25.983 64.337Z" fill="#2026A2"/>
<path fill-rule="evenodd" clip-rule="evenodd" d="M17.5211 76.8959C10.8495 78.5598 -0.338407 76.5976 -16.0426 71.0094C-19.9379 79.0681 -21.7386 84.8133 -21.4447 88.245C-7.97279 95.2822 3.57377 98.4197 13.0866 98.6269C12.7843 104.271 13.4713 109.642 15.7793 114.55C20.5241 124.639 48.3078 115.295 57.6495 117.134C63.4995 98.1357 52.1883 90.4147 52.1792 78.2581C52.1692 64.9455 41.4797 44.4541 39.907 44.4541H25.5645C24.7731 54.6212 20.79 65.8262 17.5211 76.8959Z" fill="#1F28CF"/>
</g>
</svg>
