<svg width="34" height="48" viewBox="0 0 34 48" fill="none" xmlns="http://www.w3.org/2000/svg">
<path d="M18.9271 37.2578L17 46.8036L15.0729 37.2578C14.5748 34.792 13.6409 32.5465 12.3594 30.7331C11.0779 28.9198 9.491 27.5983 7.74844 26.8935L1 24.1633L7.74607 21.4364C9.48863 20.7316 11.0755 19.4102 12.3571 17.5968C13.6386 15.7834 14.5724 13.5379 15.0705 11.0721L17 1.52295L18.9271 11.0688C19.4252 13.5345 20.3591 15.78 21.6406 17.5934C22.9221 19.4068 24.509 20.7282 26.2516 21.433L33 24.1633L26.2539 26.8902C24.5114 27.595 22.9245 28.9164 21.6429 30.7298C20.3614 32.5432 19.4276 34.7887 18.9295 37.2544L18.9271 37.2578Z" fill="white" stroke="black" stroke-width="1.5" stroke-linecap="round" stroke-linejoin="round"/>
</svg>
