<svg width="42" height="59" viewBox="0 0 42 59" fill="none" xmlns="http://www.w3.org/2000/svg">
<path d="M18.9271 37.2578L17 46.8036L15.0729 37.2578C14.5748 34.792 13.6409 32.5465 12.3594 30.7331C11.0779 28.9198 9.491 27.5983 7.74844 26.8935L1 24.1633L7.74607 21.4364C9.48863 20.7316 11.0755 19.4102 12.3571 17.5968C13.6386 15.7834 14.5724 13.5379 15.0705 11.0721L17 1.52295L18.9271 11.0688C19.4252 13.5345 20.3591 15.78 21.6406 17.5934C22.9221 19.4068 24.509 20.7282 26.2516 21.433L33 24.1633L26.2539 26.8902C24.5114 27.595 22.9245 28.9164 21.6429 30.7298C20.3614 32.5432 19.4276 34.7887 18.9295 37.2544L18.9271 37.2578Z" fill="white" stroke="black" stroke-width="1.5" stroke-linecap="round" stroke-linejoin="round"/>
<path d="M33.9636 52.7551L33 57.528L32.0364 52.7551C31.7874 51.5222 31.3205 50.3995 30.6797 49.4928C30.039 48.5861 29.2455 47.9254 28.3742 47.573L25 46.2079L28.373 44.8444C29.2443 44.492 30.0378 43.8313 30.6785 42.9246C31.3193 42.0179 31.7862 40.8952 32.0353 39.6623L33 34.8877L33.9636 39.6606C34.2126 40.8935 34.6795 42.0162 35.3203 42.9229C35.961 43.8296 36.7545 44.4903 37.6258 44.8427L41 46.2079L37.627 47.5713C36.7557 47.9237 35.9622 48.5844 35.3215 49.4911C34.6807 50.3978 34.2138 51.5206 33.9647 52.7534L33.9636 52.7551Z" fill="white" stroke="black" stroke-width="1.5" stroke-linecap="round" stroke-linejoin="round"/>
</svg>
