<svg width="30" height="30" viewBox="0 0 30 30" fill="none" xmlns="http://www.w3.org/2000/svg">
<path d="M15 30L16.97 24.085C17.5223 22.4281 18.4528 20.9226 19.6877 19.6877C20.9226 18.4527 22.4282 17.5223 24.085 16.97L30 15L24.085 13.03C22.4282 12.4777 20.9226 11.5472 19.6877 10.3123C18.4528 9.07734 17.5223 7.57185 16.97 5.915L15 -1.31134e-06L13.03 5.915C12.4777 7.57185 11.5472 9.07734 10.3123 10.3123C9.07736 11.5472 7.57185 12.4777 5.915 13.03L5.96008e-07 15L5.915 16.97C7.57185 17.5223 9.07736 18.4527 10.3123 19.6877C11.5472 20.9226 12.4777 22.4281 13.03 24.085L15 30Z" fill="white"/>
</svg>
