<svg width="12" height="12" viewBox="0 0 12 12" fill="none" xmlns="http://www.w3.org/2000/svg">
<path fill-rule="evenodd" clip-rule="evenodd" d="M6 0C2.68636 0 0 2.68636 0 6C0 9.31364 2.68636 12 6 12C9.31364 12 12 9.31364 12 6C12 2.68636 9.31364 0 6 0Z" fill="white"/>
<path fill-rule="evenodd" clip-rule="evenodd" d="M6 0C2.68636 0 0 2.68636 0 6C0 9.31364 2.68636 12 6 12C9.31364 12 12 9.31364 12 6C12 2.68636 9.31364 0 6 0ZM8.60073 4.98546C8.64862 4.93071 8.68507 4.86695 8.70796 4.79791C8.73084 4.72887 8.73968 4.65595 8.73397 4.58345C8.72825 4.51094 8.70809 4.44031 8.67468 4.37571C8.64126 4.3111 8.59526 4.25384 8.53939 4.20728C8.48352 4.16072 8.4189 4.1258 8.34933 4.10458C8.27976 4.08336 8.20665 4.07627 8.1343 4.08372C8.06195 4.09118 7.99182 4.11303 7.92804 4.14798C7.86426 4.18294 7.80812 4.2303 7.76291 4.28727L5.41745 7.10127L4.20382 5.88709C4.10094 5.78773 3.96316 5.73275 3.82015 5.734C3.67713 5.73524 3.54032 5.7926 3.43919 5.89374C3.33806 5.99487 3.28069 6.13167 3.27945 6.27469C3.27821 6.41771 3.33319 6.55549 3.43255 6.65836L5.06891 8.29473C5.1225 8.34829 5.18667 8.3901 5.25732 8.41749C5.32797 8.44488 5.40354 8.45725 5.47924 8.45381C5.55493 8.45037 5.62908 8.4312 5.69695 8.39752C5.76483 8.36384 5.82494 8.31638 5.87345 8.25818L8.60073 4.98546Z" fill="#003153"/>
</svg>
